<svg viewBox="0 0 37 37">
  <path d="M36.5424 30.4718L24.2424 18.1249L36.5705 5.93745C37.0768 5.4312 37.0768 4.6062 36.5705 4.09995L33.0643 0.574951C32.8205 0.331201 32.4924 0.199951 32.1455 0.199951C31.7986 0.199951 31.4705 0.340576 31.2268 0.574951L18.9549 12.725L6.66426 0.584327C6.42051 0.340577 6.09238 0.209327 5.74551 0.209327C5.39863 0.209327 5.07051 0.349952 4.82676 0.584327L1.32988 4.10933C0.823633 4.61558 0.823633 5.44058 1.32988 5.94683L13.658 18.1343L1.36738 30.4718C1.12363 30.7156 0.983008 31.0437 0.983008 31.3906C0.983008 31.7374 1.11426 32.0656 1.36738 32.3093L4.87363 35.8343C5.12676 36.0874 5.45488 36.2187 5.79238 36.2187C6.12051 36.2187 6.45801 36.0968 6.71113 35.8343L18.9549 23.5343L31.208 35.8249C31.4611 36.0781 31.7893 36.2093 32.1268 36.2093C32.4549 36.2093 32.7924 36.0874 33.0455 35.8249L36.5518 32.3C36.7955 32.0562 36.9361 31.7281 36.9361 31.3812C36.9268 31.0437 36.7861 30.7156 36.5424 30.4718Z"/>
</svg>
