<svg viewBox="0 0 20 20" fill="currentColor">
  <path fill-rule="evenodd" clip-rule="evenodd" d="M10 18C14.4183 18 18 14.4183 18 10C18 5.58172 14.4183 2 10 2C5.58172 2 2 5.58172 2 10C2 14.4183 5.58172 18 10 18ZM11.176 9.98125L13.9094 12.7236C13.9635 12.7777 13.9948 12.8506 13.9969 12.9256C13.9969 13.0026 13.9656 13.0755 13.9115 13.1296L13.1323 13.9125C13.076 13.9708 13.001 13.9979 12.9281 13.9979C12.8531 13.9979 12.7802 13.9688 12.724 13.9125L10.001 11.1827L7.28021 13.9146C7.22396 13.9729 7.14896 14 7.07604 14C7.00104 14 6.92812 13.9708 6.87187 13.9146L6.09271 13.1317C6.03646 13.0776 6.00729 13.0047 6.00729 12.9276C6.00729 12.8506 6.03854 12.7777 6.09271 12.7236L8.82395 9.98334L6.08437 7.27642C5.97188 7.16398 5.97188 6.98074 6.08437 6.8683L6.86146 6.08537C6.91562 6.03332 6.98854 6.00208 7.06562 6.00208C7.14271 6.00208 7.21562 6.03123 7.26979 6.08537L10.001 8.7819L12.7281 6.08329C12.7823 6.03123 12.8552 6 12.9323 6C13.0094 6 13.0823 6.02915 13.1365 6.08329L13.9156 6.86622C14.0281 6.97866 14.0281 7.16189 13.9156 7.27434L11.176 9.98125Z"/>
</svg>
