<svg width="512" height="512" viewBox="0 0 512 512" fill="none" xmlns="http://www.w3.org/2000/svg">
<g clip-path="url(#clip0_222_67)">
<rect width="512" height="512" rx="80" fill="#FBE7C5"/>
<path d="M106.291 125.421L110.903 120.309C121.369 109.751 121.995 109.12 129.246 103.04C133.326 99.8386 138.815 95.6292 143.031 92.6031C170.873 73.4015 209.668 59.7386 247.906 57.7455C253.64 57.4477 259.16 57.4214 264.441 57.6478L265.915 57.7192C279.602 58.7878 280.423 58.8514 288.735 60.2225C303.413 63.1508 304.288 63.3215 313.016 65.9209C297.561 61.2586 278.734 59.1569 257.386 60.269C197.597 63.3865 136.642 90.7356 106.291 125.421Z" fill="url(#paint0_linear_222_67)"/>
<path d="M62.8257 209.785L65.9603 198.241C68.0216 192.274 70.7685 184.304 73.1415 178.453L74.1869 176.034C97.6708 122.759 185.786 76.1468 271.878 71.6613C312.428 69.5487 345.34 77.1549 366.559 91.3453L376.77 98.7064C382.096 103.128 389.146 109.095 394.203 113.821C372.634 92.9567 332.51 81.1193 280.979 83.8057C187.323 88.6867 91.4512 139.701 66.8428 197.746C65.1088 201.841 63.7749 205.854 62.8257 209.785Z" fill="url(#paint1_linear_222_67)"/>
<path d="M61.879 297.397C60.6181 290.169 59.0081 280.508 58.1954 273.217L57.5455 262.907C57.1981 253.288 59.1865 243.012 63.7449 232.259C90.2208 169.806 193.37 114.92 294.137 109.667C360.214 106.225 408.859 124.98 427.052 155.907C436.435 173.595 437.198 175.041 441.905 187.575C428.254 150.477 375.75 127.122 301.88 130.97C199.124 136.324 93.937 192.296 66.9385 255.984C60.6429 270.832 59.1555 284.79 61.879 297.397Z" fill="url(#paint2_linear_222_67)"/>
<path d="M98.982 377.144C87.5603 361.167 86.6281 359.861 80.3992 348.317C71.9043 332.4 71.2142 313.451 79.9928 292.75C106.642 229.886 210.472 174.634 311.905 169.351C394.393 165.052 449.894 195.118 453.41 240.31C453.623 245.741 454.034 252.979 453.998 258.41C453.733 263.361 453.552 269.974 453.079 274.909C457.987 225.605 402.477 191.573 316.729 196.039C218.902 201.137 118.759 254.422 93.0571 315.054C82.9693 338.848 85.8465 360.241 98.982 377.144Z" fill="url(#paint3_linear_222_67)"/>
<path d="M169.287 434.085L167.315 433.117C152.583 425.135 149.931 423.697 137.661 414.95C115.334 398.472 107.413 374.195 119.258 346.254C142.504 291.417 233.07 243.226 321.546 238.615C408.893 234.066 461.544 273.686 440.504 327.46L438.284 332.933C430.429 349.746 429.956 350.753 423.765 360.83C426.227 356.916 428.321 352.949 430.023 348.939C451.088 299.243 403.166 262.342 322.975 266.52C242.791 270.701 160.706 314.375 139.637 364.074C126.856 394.229 139.474 419.674 169.287 434.085Z" fill="url(#paint4_linear_222_67)"/>
<path d="M270.691 452.933C323.19 450.198 376.927 421.601 390.724 389.064C404.52 356.525 373.141 332.37 320.643 335.105C268.142 337.841 214.403 366.438 200.608 398.975C186.815 431.512 218.191 455.67 270.691 452.933C269.165 453.332 267.631 453.571 266.088 453.651C253.185 454.003 252.678 454.018 245.51 453.667C242.072 453.393 237.481 453.111 234.055 452.745C186.529 447.591 160.909 421.094 175.287 387.18C192.215 347.251 258.157 312.161 322.58 308.803C387.001 305.447 425.503 335.095 408.575 375.021C403.217 387.659 392.945 399.814 379.37 410.631C375.123 413.841 369.401 418.048 365.017 421.065C354.48 427.676 354.48 427.676 348.78 430.72C338.441 435.933 338.441 435.933 333.088 438.208C323 442.245 323 442.245 317.514 444.063C312.361 445.639 302.773 448.565 301.578 448.565C290.73 450.899 290.307 450.988 284.687 451.807C272.972 453.254 272.514 453.313 266.087 453.651C267.631 453.571 269.164 453.332 270.691 452.933Z" fill="url(#paint5_linear_222_67)"/>
<path d="M293.185 433.756C310.631 432.846 328.495 423.343 333.079 412.528C337.662 401.713 327.234 393.687 309.786 394.595C292.336 395.506 274.473 405.009 269.889 415.824C265.307 426.636 275.734 434.665 293.185 433.756C290.438 438.005 287.59 441.558 284.665 444.437C252.71 446.104 233.613 431.402 242.009 411.596C250.406 391.791 283.114 374.386 315.069 372.719C347.022 371.057 366.121 385.76 357.724 405.563C349.33 425.369 316.619 442.773 284.665 444.437C287.59 441.558 290.439 438.005 293.185 433.756Z" fill="url(#paint6_linear_222_67)"/>
</g>
<defs>
<linearGradient id="paint0_linear_222_67" x1="277.006" y1="53.8416" x2="261.635" y2="146.739" gradientUnits="userSpaceOnUse">
<stop stop-color="#FF0000"/>
<stop offset="0.255208" stop-color="#FF8A00"/>
<stop offset="1" stop-color="#DB00FF"/>
</linearGradient>
<linearGradient id="paint1_linear_222_67" x1="336.48" y1="63.86" x2="297.272" y2="250.179" gradientUnits="userSpaceOnUse">
<stop stop-color="#FF0000"/>
<stop offset="0.255208" stop-color="#FF8A00"/>
<stop offset="1" stop-color="#DB00FF"/>
</linearGradient>
<linearGradient id="paint2_linear_222_67" x1="374.946" y1="99.1362" x2="313.522" y2="348.348" gradientUnits="userSpaceOnUse">
<stop stop-color="#FF0000"/>
<stop offset="0.255208" stop-color="#FF8A00"/>
<stop offset="1" stop-color="#DB00FF"/>
</linearGradient>
<linearGradient id="paint3_linear_222_67" x1="387.757" y1="157.737" x2="312.798" y2="429.616" gradientUnits="userSpaceOnUse">
<stop stop-color="#FF0000"/>
<stop offset="0.255208" stop-color="#FF8A00"/>
<stop offset="1" stop-color="#DB00FF"/>
</linearGradient>
<linearGradient id="paint4_linear_222_67" x1="387.412" y1="227.721" x2="312.183" y2="480.488" gradientUnits="userSpaceOnUse">
<stop stop-color="#FF0000"/>
<stop offset="0.255208" stop-color="#FF8A00"/>
<stop offset="1" stop-color="#DB00FF"/>
</linearGradient>
<linearGradient id="paint5_linear_222_67" x1="370.538" y1="300.72" x2="313.779" y2="487.769" gradientUnits="userSpaceOnUse">
<stop stop-color="#FF0000"/>
<stop offset="0.255208" stop-color="#FF8A00"/>
<stop offset="1" stop-color="#DB00FF"/>
</linearGradient>
<linearGradient id="paint6_linear_222_67" x1="338.857" y1="368.717" x2="310.8" y2="461.353" gradientUnits="userSpaceOnUse">
<stop stop-color="#FF0000"/>
<stop offset="0.255208" stop-color="#FF8A00"/>
<stop offset="1" stop-color="#DB00FF"/>
</linearGradient>
<clipPath id="clip0_222_67">
<rect width="512" height="512" fill="white"/>
</clipPath>
</defs>
</svg>
