<svg width="987" height="314" viewBox="0 0 987 314" fill="none" xmlns="http://www.w3.org/2000/svg">
<g clip-path="url(#clip0_122_10)">
<path d="M37.8594 58.1981L41.4391 54.2307C49.5616 46.0372 50.0467 45.5473 55.6739 40.8289C58.8408 38.3445 63.1007 35.0777 66.3723 32.7293C87.9797 17.8276 118.087 7.22434 147.762 5.67761C152.212 5.4465 156.496 5.42604 160.594 5.60178L161.738 5.65715C172.36 6.48649 172.997 6.53583 179.448 7.59989C190.839 9.87245 191.518 10.0049 198.291 12.0222C186.297 8.40396 171.686 6.77296 155.119 7.636C108.719 10.0554 61.4143 31.28 37.8594 58.1981Z" fill="url(#paint0_linear_122_10)"/>
<path d="M4.12793 123.67L6.56059 114.711C8.16029 110.08 10.2921 103.895 12.1337 99.3547L12.945 97.477C31.17 56.1327 99.5527 19.9583 166.366 16.4773C197.835 14.8378 223.377 20.7407 239.844 31.7533L247.769 37.466C251.902 40.8977 257.373 45.5282 261.298 49.1959C244.559 33.0039 213.42 23.8173 173.429 25.9021C100.746 29.6901 26.3432 69.2806 7.24549 114.327C5.89977 117.505 4.86459 120.619 4.12793 123.67Z" fill="url(#paint1_linear_122_10)"/>
<path d="M3.3931 191.662C2.41451 186.053 1.16508 178.555 0.534347 172.897L0.0300033 164.896C-0.239622 157.431 1.30351 149.456 4.84114 141.111C25.3881 92.6435 105.438 50.0486 183.64 45.9717C234.92 43.3007 272.671 57.8557 286.79 81.8572C294.072 95.5841 294.664 96.7059 298.317 106.433C287.723 77.6431 246.977 59.518 189.649 62.5043C109.904 66.6595 28.2721 110.097 7.31953 159.523C2.43377 171.046 1.27943 181.878 3.3931 191.662Z" fill="url(#paint2_linear_122_10)"/>
<path d="M32.1874 253.551C23.3234 241.152 22.6 240.138 17.766 231.179C11.1734 218.827 10.6378 204.121 17.4506 188.056C38.1324 139.269 118.711 96.3902 197.429 92.2905C261.445 88.9538 304.517 112.287 307.246 147.359C307.411 151.574 307.73 157.191 307.702 161.406C307.497 165.248 307.356 170.38 306.989 174.21C310.798 135.947 267.719 109.536 201.173 113.002C125.253 116.958 47.5356 158.311 27.5893 205.365C19.7605 223.831 21.9934 240.433 32.1874 253.551Z" fill="url(#paint3_linear_122_10)"/>
<path d="M86.7489 297.741L85.2178 296.989C73.7852 290.795 71.7269 289.679 62.2045 282.891C44.8774 270.103 38.7302 251.262 47.9228 229.578C65.9636 187.021 136.248 149.622 204.911 146.044C272.698 142.513 313.558 173.261 297.23 214.993L295.507 219.24C289.411 232.288 289.044 233.07 284.239 240.89C286.15 237.853 287.775 234.774 289.096 231.662C305.444 193.095 268.253 164.457 206.02 167.7C143.792 170.944 80.0889 204.838 63.738 243.408C53.8196 266.81 63.6116 286.557 86.7489 297.741Z" fill="url(#paint4_linear_122_10)"/>
<path d="M165.444 312.368C206.187 310.245 247.89 288.052 258.597 262.801C269.304 237.549 244.952 218.803 204.21 220.926C163.466 223.049 121.761 245.242 111.055 270.493C100.351 295.744 124.701 314.492 165.444 312.368C164.26 312.677 163.069 312.863 161.872 312.925C151.858 313.198 151.465 313.21 145.902 312.937C143.234 312.725 139.671 312.506 137.012 312.222C100.129 308.222 80.2466 287.659 91.4048 261.339C104.542 230.352 155.717 203.12 205.713 200.514C255.708 197.909 285.588 220.918 272.451 251.903C268.293 261.711 260.321 271.144 249.786 279.539C246.49 282.03 242.049 285.295 238.647 287.636C230.47 292.767 230.47 292.767 226.046 295.129C218.022 299.175 218.022 299.175 213.868 300.94C206.039 304.073 206.039 304.073 201.782 305.484C197.783 306.707 190.342 308.978 189.414 308.978C180.996 310.789 180.667 310.858 176.306 311.494C167.214 312.617 166.859 312.663 161.871 312.925C163.069 312.863 164.259 312.677 165.444 312.368Z" fill="url(#paint5_linear_122_10)"/>
<path d="M182.901 297.485C196.44 296.779 210.304 289.404 213.861 281.011C217.418 272.618 209.325 266.389 195.784 267.094C182.242 267.801 168.379 275.176 164.822 283.569C161.266 291.96 169.358 298.191 182.901 297.485C180.769 300.783 178.559 303.54 176.289 305.774C151.49 307.068 136.669 295.658 143.185 280.288C149.702 264.918 175.085 251.41 199.884 250.117C224.682 248.827 239.504 260.237 232.987 275.606C226.473 290.976 201.087 304.483 176.289 305.774C178.559 303.54 180.77 300.783 182.901 297.485Z" fill="url(#paint6_linear_122_10)"/>
<path d="M448.438 17.1552V0H375.704V17.1552H401.883V88.024H422.14V17.1552H448.438Z" fill="#222222"/>
<path d="M476.391 52.5304C476.391 44.4852 481.247 38.688 488.473 38.688C495.344 38.688 499.016 43.3021 499.016 50.1642V88.024H517.496V46.6149C517.496 32.5357 509.441 23.3074 495.581 23.3074C486.815 23.3074 480.418 27.33 476.628 34.0738H476.272C476.391 29.9329 476.391 24.8455 476.391 24.2539V0H457.792V88.024H476.391V52.5304Z" fill="#222222"/>
<path d="M558.663 36.44C566.007 36.44 570.982 41.7641 571.575 50.5191H544.684C545.987 41.8824 550.252 36.44 558.663 36.44ZM589.344 70.2772H571.338C569.324 74.1815 565.652 76.4294 559.847 76.4294C550.844 76.4294 545.751 70.6322 544.566 61.2855H590.528C590.647 48.8628 587.448 38.2147 580.341 31.3526C574.773 26.2652 567.666 23.3074 558.663 23.3074C539.472 23.3074 526.323 37.7415 526.323 56.6714C526.323 75.4829 538.998 89.917 559.61 89.917C575.839 89.917 586.145 81.3985 589.344 70.2772Z" fill="#222222"/>
<path d="M419.534 200.518C431.853 200.518 440.856 197.087 447.49 190.579C453.532 184.664 457.559 176.5 458.152 167.745H437.895C436.947 176.855 430.314 183.836 419.534 183.836C405.674 183.836 396.908 171.65 396.908 154.849C396.908 138.167 404.371 125.745 419.415 125.745C429.366 125.745 436 131.897 437.184 140.179H457.322C456.256 130.24 451.636 121.604 443.699 115.806C437.658 111.311 429.247 108.944 419.534 108.944C393.236 108.944 376.296 128.584 376.296 154.849C376.296 181.115 393.828 200.518 419.534 200.518Z" fill="#222222"/>
<path d="M485.992 169.283C485.992 156.979 492.626 150.708 502.695 150.827C503.998 150.827 505.301 150.945 506.604 151.182H507.078V134.973C506.249 134.618 504.946 134.5 503.169 134.5C495.351 134.5 489.665 138.049 485.637 146.804H485.282V135.564H467.394V198.506H485.992V169.283Z" fill="#222222"/>
<path d="M525.339 109.063C519.535 109.063 515.152 113.44 515.152 119.119C515.152 124.798 519.535 129.176 525.339 129.176C531.144 129.176 535.527 124.798 535.527 119.119C535.527 113.44 531.144 109.063 525.339 109.063ZM515.981 198.506H534.579V135.564H515.981V198.506Z" fill="#222222"/>
<path d="M546.869 198.506H565.467V162.658C565.467 154.613 569.85 149.052 576.365 149.052C582.525 149.052 585.605 153.193 585.605 160.055V198.506H604.203V162.658C604.203 154.613 608.349 149.052 614.983 149.052C621.024 149.052 624.341 153.193 624.341 160.055V198.506H642.821V156.979C642.821 143.018 635.595 133.79 621.617 133.79C613.68 133.79 606.809 137.339 601.597 145.739H601.36C598.162 137.931 592.357 133.79 584.065 133.79C575.18 133.79 569.139 137.931 565.111 145.384H564.756V135.564H546.869V198.506Z" fill="#222222"/>
<path d="M684.063 146.922C691.408 146.922 696.383 152.246 696.975 161.002H670.085C671.388 152.365 675.653 146.922 684.063 146.922ZM714.744 180.76H696.738C694.725 184.664 691.052 186.912 685.248 186.912C676.245 186.912 671.151 181.115 669.967 171.768H715.929C716.047 159.345 712.849 148.697 705.741 141.835C700.174 136.748 693.066 133.79 684.063 133.79C664.873 133.79 651.724 148.224 651.724 167.154C651.724 185.965 664.399 200.399 685.011 200.399C701.24 200.399 711.546 191.881 714.744 180.76Z" fill="#222222"/>
<path d="M419.534 311C431.853 311 440.856 307.569 447.49 301.062C453.532 295.146 457.559 286.983 458.152 278.228H437.895C436.947 287.338 430.314 294.318 419.534 294.318C405.674 294.318 396.908 282.132 396.908 265.332C396.908 248.65 404.371 236.227 419.415 236.227C429.366 236.227 436 242.379 437.184 250.661H457.322C456.256 240.723 451.636 232.086 443.699 226.289C437.658 221.793 429.247 219.427 419.534 219.427C393.236 219.427 376.296 239.066 376.296 265.332C376.296 291.597 393.828 311 419.534 311Z" fill="#222222"/>
<path d="M485.992 273.495C485.992 265.45 490.849 259.653 498.075 259.653C504.946 259.653 508.618 264.267 508.618 271.129V308.989H527.098V267.58C527.098 253.5 519.043 244.272 505.183 244.272C496.417 244.272 490.02 248.295 486.229 255.039H485.874C485.992 250.898 485.992 245.81 485.992 245.219V220.965H467.394V308.989H485.992V273.495Z" fill="#222222"/>
<path d="M557.485 279.766C557.485 267.461 564.118 261.191 574.187 261.309C575.49 261.309 576.793 261.427 578.097 261.664H578.57V245.455C577.741 245.1 576.438 244.982 574.661 244.982C566.843 244.982 561.157 248.531 557.129 257.286H556.774V246.047H538.886V308.989H557.485V279.766Z" fill="#222222"/>
<path d="M616.761 311C636.78 311 649.929 296.448 649.929 277.636C649.929 258.706 636.78 244.272 616.761 244.272C596.623 244.272 583.355 258.706 583.355 277.636C583.355 296.448 596.623 311 616.761 311ZM616.642 297.512C607.165 297.512 602.19 289.467 602.19 277.636C602.19 265.687 607.165 257.523 616.642 257.523C625.882 257.523 631.094 265.687 631.094 277.636C631.094 289.467 625.882 297.512 616.642 297.512Z" fill="#222222"/>
<path d="M677.911 273.495C677.911 265.45 682.768 259.653 689.994 259.653C696.864 259.653 700.537 264.267 700.537 271.129V308.989H719.016V267.58C719.016 253.5 710.961 244.272 697.101 244.272C688.335 244.272 681.583 248.058 677.674 255.63H677.319V246.047H659.313V308.989H677.911V273.495Z" fill="#222222"/>
<path d="M740.163 219.545C734.359 219.545 729.976 223.922 729.976 229.601C729.976 235.28 734.359 239.658 740.163 239.658C745.968 239.658 750.351 235.28 750.351 229.601C750.351 223.922 745.968 219.545 740.163 219.545ZM730.805 308.989H749.403V246.047H730.805V308.989Z" fill="#222222"/>
<path d="M791.9 311C809.432 311 820.804 299.879 821.396 285.563H803.509C802.679 292.78 798.533 296.921 791.663 296.921C782.304 296.921 777.566 289.112 777.566 277.636C777.566 265.805 782.304 258.115 791.663 258.115C797.823 258.115 801.613 261.782 802.916 267.58H820.922C818.671 253.855 808.247 244.272 791.426 244.272C771.643 244.272 758.731 258.706 758.731 277.636C758.731 296.448 771.761 311 791.9 311Z" fill="#222222"/>
<path d="M830.298 308.989H849.015V220.965H830.298V308.989Z" fill="#222222"/>
<path d="M890.905 257.405C898.249 257.405 903.225 262.729 903.817 271.484H876.927C878.23 262.847 882.494 257.405 890.905 257.405ZM921.586 291.242H903.58C901.566 295.146 897.894 297.394 892.09 297.394C883.087 297.394 877.993 291.597 876.808 282.25H922.771C922.889 269.827 919.691 259.179 912.583 252.317C907.015 247.23 899.908 244.272 890.905 244.272C871.714 244.272 858.565 258.706 858.565 277.636C858.565 296.448 871.241 310.882 891.853 310.882C908.082 310.882 918.388 302.363 921.586 291.242Z" fill="#222222"/>
<path d="M958.273 311C974.621 311 986.704 303.901 986.704 290.295C986.704 274.442 973.91 271.484 962.656 269.473C954.009 267.934 947.138 267.225 947.138 262.492C947.138 258.47 950.81 256.103 956.496 256.103C962.419 256.103 965.973 258.351 967.158 262.847H984.453C982.794 251.844 974.028 244.272 956.496 244.272C941.689 244.272 929.961 251.016 929.961 263.912C929.961 278.583 941.334 281.422 952.587 283.552C961.353 285.208 968.816 285.918 968.816 291.597C968.816 296.093 965.025 298.814 958.392 298.814C951.166 298.814 946.664 295.501 945.598 289.586H928.066C929.014 302.245 940.031 311 958.273 311Z" fill="#222222"/>
</g>
<defs>
<linearGradient id="paint0_linear_122_10" x1="170.345" y1="2.64793" x2="158.416" y2="74.7418" gradientUnits="userSpaceOnUse">
<stop stop-color="#FF0000"/>
<stop offset="0.255208" stop-color="#FF8A00"/>
<stop offset="1" stop-color="#DB00FF"/>
</linearGradient>
<linearGradient id="paint1_linear_122_10" x1="216.501" y1="10.423" x2="186.073" y2="155.018" gradientUnits="userSpaceOnUse">
<stop stop-color="#FF0000"/>
<stop offset="0.255208" stop-color="#FF8A00"/>
<stop offset="1" stop-color="#DB00FF"/>
</linearGradient>
<linearGradient id="paint2_linear_122_10" x1="246.353" y1="37.7993" x2="198.684" y2="231.203" gradientUnits="userSpaceOnUse">
<stop stop-color="#FF0000"/>
<stop offset="0.255208" stop-color="#FF8A00"/>
<stop offset="1" stop-color="#DB00FF"/>
</linearGradient>
<linearGradient id="paint3_linear_122_10" x1="256.295" y1="83.2774" x2="198.122" y2="294.272" gradientUnits="userSpaceOnUse">
<stop stop-color="#FF0000"/>
<stop offset="0.255208" stop-color="#FF8A00"/>
<stop offset="1" stop-color="#DB00FF"/>
</linearGradient>
<linearGradient id="paint4_linear_122_10" x1="256.027" y1="137.589" x2="197.645" y2="333.752" gradientUnits="userSpaceOnUse">
<stop stop-color="#FF0000"/>
<stop offset="0.255208" stop-color="#FF8A00"/>
<stop offset="1" stop-color="#DB00FF"/>
</linearGradient>
<linearGradient id="paint5_linear_122_10" x1="242.932" y1="194.241" x2="198.883" y2="339.403" gradientUnits="userSpaceOnUse">
<stop stop-color="#FF0000"/>
<stop offset="0.255208" stop-color="#FF8A00"/>
<stop offset="1" stop-color="#DB00FF"/>
</linearGradient>
<linearGradient id="paint6_linear_122_10" x1="218.345" y1="247.011" x2="196.571" y2="318.902" gradientUnits="userSpaceOnUse">
<stop stop-color="#FF0000"/>
<stop offset="0.255208" stop-color="#FF8A00"/>
<stop offset="1" stop-color="#DB00FF"/>
</linearGradient>
<clipPath id="clip0_122_10">
<rect width="987" height="314" fill="white"/>
</clipPath>
</defs>
</svg>
